<svg width="61" height="61" viewBox="0 0 61 61" fill="none"
    xmlns="http://www.w3.org/2000/svg">
    <path d="M56.2538 45.4563C55.2088 47.2415 53.9897 48.9105 52.6109 50.4344H45.2672C43.8884 50.4344 42.7854 49.3169 42.7854 47.9526V27.4889H31.0587V34.7165C31.0587 36.0953 29.9411 37.2128 28.5624 37.2128C27.1836 37.2128 26.0661 36.0953 26.0661 34.7165V17.9681H13.991V47.9526C13.991 49.3169 12.8735 50.4344 11.5092 50.4344H7.77927C6.40051 48.9105 5.18137 47.2415 4.13641 45.4563H9.01292V15.4718C9.01292 14.0931 10.1304 12.9755 11.5092 12.9755H28.5624C29.9411 12.9755 31.0587 14.0931 31.0587 15.4718V22.4963H45.2672C46.646 22.4963 47.7635 23.6138 47.7635 24.9926V45.4563H56.2538Z" fill="white"/>
    <path d="M60.39 30.2022C60.39 30.7247 60.39 31.2472 60.3464 31.7552C60.3174 32.2776 60.2884 32.7856 60.2303 33.2936C60.1868 33.7435 60.1287 34.1934 60.0707 34.6288L59.9401 35.4125C59.8385 36.0076 59.7078 36.6026 59.5627 37.1977C59.3305 38.2426 59.0257 39.2731 58.6629 40.2745C58.5758 40.5357 58.4742 40.797 58.3726 41.0582C58.1404 41.6678 57.8792 42.2628 57.6034 42.8579C57.4728 43.1627 57.3277 43.4529 57.1826 43.7432C56.8923 44.3237 56.5875 44.8897 56.2537 45.4557H47.7634V24.992C47.7634 23.6132 46.6458 22.4957 45.2671 22.4957H31.0586V15.4712C31.0586 14.0924 29.941 12.9749 28.5623 12.9749H11.5091C10.1303 12.9749 9.01281 14.0924 9.01281 15.4712V45.4557H4.13631C3.8025 44.8897 3.49774 44.3237 3.20748 43.7432C3.09137 43.5255 2.97525 43.2933 2.87366 43.0611C2.56888 42.408 2.27861 41.7403 2.01737 41.0582C1.91578 40.797 1.81417 40.5357 1.72709 40.2745C1.36426 39.2731 1.05948 38.2426 0.82727 37.1977C0.682137 36.6026 0.551547 36.0076 0.449954 35.4125L0.319295 34.6288C0.261242 34.1934 0.20321 33.7435 0.15967 33.2936C0.101616 32.7856 0.0726092 32.2776 0.0435825 31.7552C0.0145558 31.2472 0 30.7247 0 30.2022C0 13.5264 13.512 0 30.2023 0C46.8926 0 60.39 13.5264 60.39 30.2022Z" fill="#D71920"/>
    <path d="M52.6113 50.4351C52.6113 50.4351 52.5678 50.4786 52.5533 50.5076C52.2195 50.8705 51.8857 51.2188 51.5373 51.5526C50.1731 52.9168 48.6782 54.165 47.0817 55.239C46.7044 55.5002 46.3416 55.7324 45.9497 55.9646C45.8771 56.0082 45.8191 56.0517 45.7611 56.0808C45.4563 56.2694 45.1515 56.4436 44.8322 56.6177C44.7016 56.6903 44.5709 56.7629 44.4548 56.8209C44.1355 57.0096 43.8017 57.1693 43.4679 57.3289C43.3663 57.387 43.2502 57.445 43.1486 57.4885C42.7423 57.6772 42.3504 57.8659 41.9441 58.0255C41.6102 58.1707 41.2764 58.3013 40.9426 58.4319C40.6669 58.548 40.3911 58.6496 40.1154 58.7222C39.8106 58.8383 39.4913 58.9544 39.172 59.0415C38.6931 59.2011 38.2286 59.3317 37.7352 59.4478C37.3288 59.5639 36.9369 59.651 36.5306 59.7381C36.2403 59.8107 35.9355 59.8687 35.6307 59.9123C35.3695 59.9703 35.1083 60.0139 34.847 60.0429C34.7599 60.0574 34.6584 60.0719 34.5568 60.0864C34.1359 60.159 33.7005 60.2025 33.2796 60.2461C32.7716 60.3041 32.2637 60.3332 31.7412 60.3622C31.2332 60.3912 30.7253 60.4057 30.2028 60.4057C29.1578 60.4057 28.1128 60.3477 27.0969 60.2461C26.7341 60.217 26.3712 60.1735 26.0084 60.1155C25.6311 60.0574 25.2537 59.9993 24.8764 59.9268C24.5135 59.8687 24.1507 59.7962 23.7879 59.7236C23.367 59.6365 22.9606 59.5349 22.5687 59.4333C22.1914 59.3317 21.7995 59.2301 21.4222 59.0995C21.0884 59.0124 20.7546 58.8963 20.4353 58.7802C20.0579 58.6641 19.6806 58.5335 19.3178 58.3739C18.7082 58.1416 18.1132 57.8949 17.5326 57.6192C17.1843 57.4595 16.836 57.2999 16.5022 57.1257C16.3861 57.0677 16.27 57.0096 16.1684 56.9515C15.8346 56.7774 15.5008 56.6032 15.1815 56.4146C15.0654 56.342 14.9492 56.2839 14.8476 56.2114C14.6154 56.0807 14.3832 55.9356 14.151 55.7905C13.8898 55.6308 13.6285 55.4567 13.3673 55.268C12.8884 54.9487 12.4094 54.6149 11.9595 54.2666C11.6257 54.0199 11.3064 53.7731 10.9871 53.4974C9.84054 52.5685 8.76657 51.5381 7.77966 50.4351H11.5096C12.8739 50.4351 13.9914 49.3175 13.9914 47.9533V17.9688H26.0665V34.7171C26.0665 36.0959 27.184 37.2134 28.5628 37.2134C29.9415 37.2134 31.0591 36.0959 31.0591 34.7171V27.4895H42.7858V47.9533C42.7858 49.3175 43.8888 50.4351 45.2676 50.4351H52.6113Z" fill="#D71920"/>
</svg>
