<?xml version="1.0" encoding="UTF-8"?>
<svg xmlns="http://www.w3.org/2000/svg" xmlns:xlink="http://www.w3.org/1999/xlink" width="32px" height="32px" viewBox="0 0 32 32" version="1.1">
<g id="surface1">
<path style=" stroke:none;fill-rule:nonzero;fill:rgb(100%,100%,100%);fill-opacity:1;" d="M 29.511719 23.847656 C 28.960938 24.78125 28.324219 25.65625 27.597656 26.457031 L 23.746094 26.457031 C 23.023438 26.457031 22.445312 25.871094 22.445312 25.15625 L 22.445312 14.421875 L 16.292969 14.421875 L 16.292969 18.210938 C 16.292969 18.933594 15.707031 19.519531 14.984375 19.519531 C 14.261719 19.519531 13.675781 18.933594 13.675781 18.210938 L 13.675781 9.425781 L 7.339844 9.425781 L 7.339844 25.15625 C 7.339844 25.871094 6.753906 26.457031 6.039062 26.457031 L 4.082031 26.457031 C 3.359375 25.65625 2.71875 24.78125 2.167969 23.847656 L 4.726562 23.847656 L 4.726562 8.117188 C 4.726562 7.394531 5.3125 6.808594 6.039062 6.808594 L 14.984375 6.808594 C 15.707031 6.808594 16.292969 7.394531 16.292969 8.117188 L 16.292969 11.800781 L 23.746094 11.800781 C 24.46875 11.800781 25.054688 12.386719 25.054688 13.109375 L 25.054688 23.847656 Z M 29.511719 23.847656 "/>
<path style=" stroke:none;fill-rule:nonzero;fill:rgb(84.313725%,9.803922%,12.54902%);fill-opacity:1;" d="M 31.679688 15.84375 C 31.679688 16.117188 31.679688 16.390625 31.65625 16.660156 C 31.640625 16.933594 31.625 17.199219 31.597656 17.464844 C 31.574219 17.703125 31.542969 17.9375 31.511719 18.164062 L 31.445312 18.578125 C 31.390625 18.890625 31.320312 19.203125 31.246094 19.511719 C 31.125 20.0625 30.964844 20.601562 30.773438 21.128906 C 30.726562 21.265625 30.675781 21.402344 30.621094 21.539062 C 30.5 21.859375 30.363281 22.171875 30.21875 22.484375 C 30.148438 22.644531 30.074219 22.796875 29.996094 22.945312 C 29.84375 23.25 29.683594 23.546875 29.511719 23.84375 L 25.054688 23.84375 L 25.054688 13.109375 C 25.054688 12.386719 24.46875 11.800781 23.746094 11.800781 L 16.292969 11.800781 L 16.292969 8.117188 C 16.292969 7.394531 15.707031 6.804688 14.984375 6.804688 L 6.039062 6.804688 C 5.3125 6.804688 4.726562 7.394531 4.726562 8.117188 L 4.726562 23.84375 L 2.167969 23.84375 C 1.996094 23.546875 1.835938 23.25 1.683594 22.945312 C 1.621094 22.832031 1.5625 22.710938 1.507812 22.589844 C 1.347656 22.246094 1.195312 21.898438 1.058594 21.539062 C 1.003906 21.402344 0.953125 21.265625 0.90625 21.128906 C 0.714844 20.601562 0.554688 20.0625 0.433594 19.511719 C 0.359375 19.203125 0.289062 18.890625 0.234375 18.578125 L 0.167969 18.164062 C 0.136719 17.9375 0.105469 17.703125 0.0820312 17.464844 C 0.0546875 17.199219 0.0390625 16.933594 0.0234375 16.660156 C 0.0078125 16.390625 0 16.117188 0 15.84375 C 0 7.097656 7.089844 0 15.84375 0 C 24.597656 0 31.679688 7.097656 31.679688 15.84375 Z M 31.679688 15.84375 "/>
<path style=" stroke:none;fill-rule:nonzero;fill:rgb(84.313725%,9.803922%,12.54902%);fill-opacity:1;" d="M 27.597656 26.457031 C 27.597656 26.457031 27.578125 26.480469 27.570312 26.496094 C 27.394531 26.6875 27.21875 26.867188 27.035156 27.042969 C 26.320312 27.757812 25.535156 28.414062 24.699219 28.976562 C 24.5 29.113281 24.308594 29.238281 24.105469 29.359375 C 24.066406 29.382812 24.035156 29.402344 24.003906 29.417969 C 23.847656 29.519531 23.6875 29.609375 23.519531 29.699219 C 23.449219 29.738281 23.382812 29.777344 23.320312 29.808594 C 23.152344 29.90625 22.976562 29.992188 22.804688 30.074219 C 22.75 30.105469 22.6875 30.136719 22.636719 30.15625 C 22.421875 30.257812 22.214844 30.355469 22.003906 30.441406 C 21.828125 30.515625 21.652344 30.585938 21.476562 30.652344 C 21.332031 30.714844 21.1875 30.765625 21.042969 30.804688 C 20.882812 30.867188 20.714844 30.925781 20.550781 30.972656 C 20.296875 31.054688 20.054688 31.125 19.796875 31.1875 C 19.582031 31.246094 19.375 31.292969 19.164062 31.339844 C 19.011719 31.375 18.851562 31.40625 18.691406 31.429688 C 18.554688 31.460938 18.417969 31.484375 18.28125 31.496094 C 18.234375 31.503906 18.179688 31.511719 18.128906 31.519531 C 17.90625 31.558594 17.679688 31.582031 17.457031 31.605469 C 17.191406 31.636719 16.925781 31.648438 16.652344 31.664062 C 16.382812 31.679688 16.117188 31.6875 15.84375 31.6875 C 15.296875 31.6875 14.746094 31.65625 14.214844 31.605469 C 14.023438 31.589844 13.835938 31.566406 13.644531 31.535156 C 13.445312 31.503906 13.246094 31.476562 13.050781 31.4375 C 12.859375 31.40625 12.667969 31.367188 12.480469 31.332031 C 12.257812 31.285156 12.042969 31.230469 11.839844 31.179688 C 11.640625 31.125 11.4375 31.070312 11.238281 31.003906 C 11.0625 30.957031 10.886719 30.894531 10.71875 30.835938 C 10.523438 30.773438 10.324219 30.707031 10.132812 30.621094 C 9.8125 30.5 9.503906 30.371094 9.199219 30.226562 C 9.015625 30.144531 8.832031 30.058594 8.65625 29.96875 C 8.597656 29.9375 8.535156 29.90625 8.480469 29.875 C 8.308594 29.785156 8.132812 29.695312 7.964844 29.59375 C 7.902344 29.554688 7.84375 29.527344 7.789062 29.488281 C 7.667969 29.417969 7.546875 29.34375 7.421875 29.265625 C 7.285156 29.183594 7.148438 29.09375 7.011719 28.992188 C 6.761719 28.824219 6.511719 28.652344 6.273438 28.46875 C 6.097656 28.339844 5.929688 28.207031 5.765625 28.0625 C 5.164062 27.578125 4.597656 27.035156 4.082031 26.457031 L 6.039062 26.457031 C 6.753906 26.457031 7.339844 25.871094 7.339844 25.15625 L 7.339844 9.425781 L 13.675781 9.425781 L 13.675781 18.210938 C 13.675781 18.9375 14.261719 19.523438 14.984375 19.523438 C 15.707031 19.523438 16.292969 18.9375 16.292969 18.210938 L 16.292969 14.421875 L 22.445312 14.421875 L 22.445312 25.15625 C 22.445312 25.871094 23.023438 26.457031 23.746094 26.457031 Z M 27.597656 26.457031 "/>
</g>
</svg>
