<svg width="14" height="14" viewBox="0 0 14 14" fill="none" xmlns="http://www.w3.org/2000/svg">
<path d="M14 7C14 10.866 10.866 14 7 14C3.13401 14 0 10.866 0 7C0 3.13401 3.13401 0 7 0C10.866 0 14 3.13401 14 7Z" fill="#D9D9D9"/>
<path d="M6.21208 8.59372C6.21208 8.30806 6.25988 8.05504 6.35547 7.83467C6.45976 7.6143 6.58576 7.41842 6.7335 7.24702C6.88992 7.07562 7.05504 6.91646 7.22884 6.76955C7.40265 6.62263 7.56342 6.48388 7.71115 6.35329C7.86758 6.21454 7.99359 6.07171 8.08918 5.92479C8.19346 5.77788 8.2456 5.61464 8.2456 5.43508C8.2456 5.14126 8.11525 4.90456 7.85454 4.725C7.60252 4.54544 7.2636 4.45566 6.83778 4.45566C6.42934 4.45566 6.06435 4.53728 5.74281 4.70051C5.42127 4.85559 5.15622 5.07596 4.94765 5.36162L3.37037 4.49239C3.71798 3.99451 4.20029 3.59866 4.8173 3.30484C5.43431 3.00285 6.18167 2.85185 7.05938 2.85185C7.71115 2.85185 8.28471 2.94163 8.78005 3.12119C9.2754 3.29259 9.66211 3.54561 9.9402 3.88025C10.227 4.21488 10.3704 4.62706 10.3704 5.11677C10.3704 5.43508 10.3182 5.71667 10.2139 5.96152C10.1097 6.20638 9.97496 6.41859 9.80985 6.59815C9.64473 6.77771 9.46658 6.94503 9.2754 7.1001C9.0929 7.25518 8.9191 7.40617 8.75398 7.55309C8.58887 7.7 8.44982 7.85507 8.33685 8.01831C8.23257 8.18155 8.18043 8.37335 8.18043 8.59372H6.21208ZM7.20277 11.6667C6.83778 11.6667 6.53797 11.5565 6.30333 11.3361C6.06869 11.1157 5.95138 10.8546 5.95138 10.5526C5.95138 10.2424 6.06869 9.98532 6.30333 9.78128C6.53797 9.56907 6.83778 9.46296 7.20277 9.46296C7.57645 9.46296 7.87627 9.56907 8.10221 9.78128C8.33685 9.98532 8.45417 10.2424 8.45417 10.5526C8.45417 10.8546 8.33685 11.1157 8.10221 11.3361C7.87627 11.5565 7.57645 11.6667 7.20277 11.6667Z" fill="white"/>
</svg>
